<svg id="Layer_1" viewBox="0 0 64 64" xmlns="http://www.w3.org/2000/svg" data-name="Layer 1"><path d="m54.87 29.51c0-4.86-.58-7.24-1.07-8.38a3.993 3.993 0 0 0 1.07-2.8v-7.12a10.348 10.348 0 0 0 -3.61-7.58.934.934 0 0 0 -.18-.16.53.53 0 0 0 -.1-.06c-2.98-2.03-6.03-1.47-9.88-.77a38.352 38.352 0 0 1 -12.73.65c-11.47-1.52-18.21 1.9-18.81 2.21-.02.01-.03.02-.04.02s-.02.01-.03.02a9.535 9.535 0 0 0 -4.74 6.67 14.866 14.866 0 0 0 1.86 10.09 2.063 2.063 0 0 0 1.03.65 85.885 85.885 0 0 1 .02 9.39 21.015 21.015 0 0 1 -1 6.41 39.825 39.825 0 0 0 -1.56 8.08c-.71 6.4 1.09 9.12 2.52 10.27l-2.14 1.83a1.055 1.055 0 0 0 -.34.93 1.039 1.039 0 0 0 .6.79c2.2 1 6.06 1.35 10.43 1.35a165.725 165.725 0 0 0 18.28-1.29c6.28-.75 17.4-.83 22.04-.83h.13a2.749 2.749 0 0 0 2.73-2.56c.24-3.4.31-9.56-1.89-12.52-2.59-3.49-2.59-8.44-2.59-15.29zm-48.15-16.93a7.456 7.456 0 0 1 3.53-5.17c1.25.12 6.11.68 9.43 2.7 4.24 2.57 10.98 2.56 15.45 1.22a17.016 17.016 0 0 1 5.08-.47c2.35.01 4.78.02 7.04-1.17a8.032 8.032 0 0 0 3.68-3.55 8.028 8.028 0 0 1 1.94 5.07v7.16a2.056 2.056 0 0 1 -.76 1.61.966.966 0 0 0 -.32.22c-.01.01-.01.01-.01.02a.035.035 0 0 1 -.02.01 4.259 4.259 0 0 1 -1.68.53 9.593 9.593 0 0 0 -4.31 1.4 7.546 7.546 0 0 1 -2.18.93c-1.25.33-4.41-.38-7.46-1.07a54.04 54.04 0 0 0 -8.88-1.5c-.33-.02-.69-.03-1.07-.03-2.12 0-4.91.21-7.61.41a78.835 78.835 0 0 1 -9.58.34h-.01a1.02 1.02 0 0 0 -.52-.08h-.02a1.23 1.23 0 0 1 -.27-.11 13.223 13.223 0 0 1 -1.45-8.47zm50.64 44.6a.744.744 0 0 1 -.74.7c-4.61.02-15.96.08-22.41.85-12.18 1.45-21.65 1.65-26.12.6l1.88-1.61a1.04 1.04 0 0 0 -.39-1.79c-.13-.03-3.36-1.04-2.49-8.88a37.34 37.34 0 0 1 1.49-7.72 23.689 23.689 0 0 0 1.08-6.91 86.65 86.65 0 0 0 0-9.15 84.1 84.1 0 0 0 9.05-.38c3.14-.23 6.38-.47 8.45-.38a53.52 53.52 0 0 1 8.53 1.46 38.01 38.01 0 0 0 7.1 1.2 5.566 5.566 0 0 0 1.3-.14 9.261 9.261 0 0 0 2.68-1.14 7.759 7.759 0 0 1 3.56-1.14 6.46 6.46 0 0 0 1.76-.45h.01a23.963 23.963 0 0 1 .77 7.21c0 7.23 0 12.46 2.98 16.48 1.33 1.79 1.88 5.87 1.51 11.19z"/><path d="m27.458 44.13a10.747 10.747 0 0 0 2.414-5.23 10.467 10.467 0 0 1 3.981-6.714 11.726 11.726 0 0 1 4.9-2.206 7.709 7.709 0 0 0 -4.3-1.207 13.249 13.249 0 0 0 -9.156 4.217c-4.508 4.62-5.354 11.139-1.886 14.524a1.1 1.1 0 0 0 .194.166 21.681 21.681 0 0 0 3.853-3.55z"/><path d="m39.568 30.619a21.629 21.629 0 0 0 -3.856 3.538 10.72 10.72 0 0 0 -2.412 5.243 10.452 10.452 0 0 1 -3.967 6.714 11.767 11.767 0 0 1 -4.925 2.206 8.207 8.207 0 0 0 5.674 1.109 13.666 13.666 0 0 0 7.8-4.12 13.725 13.725 0 0 0 3.953-7.893 7.78 7.78 0 0 0 -2.067-6.63 1.075 1.075 0 0 0 -.2-.167z"/></svg>