<svg id="Layer_2" viewBox="0 0 512 512" xmlns="http://www.w3.org/2000/svg" data-name="Layer 2"><g id="Icon"><path id="_00" d="m284.71 180.2c0 22.96-17.53 59.22-40.82 60.37-.34.02-.68.05-1.02.1 4.11-38.41 16.62-67.13 32.72-72.11.07-.02.14-.04.21-.07 1.66-.55 2.65-.67 3.61-.67 4.62 0 5.3 7.75 5.3 12.37zm-43.28 86.08v2.23c0 37.31 7.76 62.3 15.11 67.04.45.24.84.38 1.09.38 6.35 0 21.14-20.93 22.04-54.21-.61.02-1.19.03-1.73.03-14.06 0-28.29-6.62-36.5-15.47zm270.57-10.28c0 141.38-114.62 256-256 256s-256-114.62-256-256 114.62-256 256-256 256 114.62 256 256zm-161.07 29.29c0-16.03-4.27-29.69-12.43-40 6.89-13.3 10.37-27.15 10.37-41.25 0-20.49-7.76-39.51-21.85-53.56-14.35-14.31-34.34-22.36-56.3-22.68-.05 0-1.92 0-1.92 0-70.73 0-107.73 67.52-107.73 134.22 0 31.83 8.36 61.38 23.54 83.2 17.72 25.48 43.27 38.95 73.89 38.95h.65c26.17-.15 50.21-12.03 67.7-33.44 15.07-18.46 24.07-42.93 24.07-65.46zm-91.83 88.9c50.93-.29 81.83-49.45 81.83-88.9 0-15.6-4.71-29.44-14.72-38.56 8.83-14.42 12.66-28.85 12.66-42.68 0-36.21-27.67-65.65-68.29-66.23h-1.77c-64.76 0-97.73 63-97.73 124.22 0 57.11 28.85 112.16 87.43 112.16h.59zm-1.47-28.26c-2.06 0-4.12-.59-6.19-1.77-12.95-7.95-20.01-40.03-20.01-75.65 0-47.39 12.65-100.68 41.21-109.51 2.65-.88 4.71-1.18 6.77-1.18 10.6 0 15.3 9.42 15.3 22.37 0 27.08-20.31 68.88-50.33 70.35v.3c0 8.83 16.78 20.9 33.56 20.9 3.82 0 7.95-.59 11.48-2.06l.29 8.83c0 38.27-17.07 67.41-32.09 67.41z" data-name="00"/></g></svg>